<svg width="40" height="40" viewBox="0 0 40 40" fill="none" xmlns="http://www.w3.org/2000/svg">
<circle cx="20" cy="20" r="20" fill="url(#paint0_linear_172_280)"/>
<path fill-rule="evenodd" clip-rule="evenodd" d="M16.2173 12.71C15.9116 12.0312 15.5902 12.0156 15.3002 12.0078C15.065 12 14.7907 12 14.5163 12C14.2419 12 13.803 12.1014 13.4267 12.5071C13.0504 12.9128 12 13.8958 12 15.9008C12 17.8981 13.4659 19.8329 13.6697 20.1059C13.8735 20.379 16.4995 24.6153 20.6463 26.2459C24.0955 27.6033 24.801 27.3303 25.5457 27.2601C26.2904 27.1899 27.96 26.2771 28.305 25.3253C28.642 24.3735 28.642 23.5621 28.5401 23.3904C28.4382 23.2188 28.1639 23.1174 27.7562 22.9145C27.3486 22.7117 25.3418 21.7287 24.9656 21.5883C24.5893 21.4556 24.3149 21.3854 24.0484 21.7911C23.7741 22.1968 22.9902 23.1096 22.755 23.3826C22.5198 23.6557 22.2768 23.6869 21.8692 23.4841C21.4616 23.2812 20.1446 22.8521 18.5847 21.4634C17.3697 20.3868 16.5466 19.0527 16.3114 18.647C16.0762 18.2413 16.2879 18.0229 16.4917 17.82C16.672 17.6406 16.8993 17.3441 17.1031 17.1101C17.3069 16.876 17.3775 16.7044 17.5108 16.4313C17.644 16.1583 17.5813 15.9242 17.4794 15.7214C17.3775 15.5264 16.5779 13.5135 16.2173 12.71Z" fill="white"/>
<defs>
<linearGradient id="paint0_linear_172_280" x1="19.999" y1="39.998" x2="19.999" y2="-0.0013995" gradientUnits="userSpaceOnUse">
<stop stop-color="#AE0003"/>
<stop offset="1" stop-color="#FF3737"/>
</linearGradient>
</defs>
</svg>
