<svg width="376" height="127" viewBox="0 0 376 127" fill="none" xmlns="http://www.w3.org/2000/svg">
<path d="M59.6779 126.622C41.44 126.622 30.9811 114.688 30.9811 93.8783V84.6065H44.7944V94.3819C44.7944 106.9 49.6057 112.98 59.507 112.98C69.4083 112.98 74.2196 106.9 74.2196 94.3819C74.2196 81.8636 65.0647 75.6854 55.3612 68.6349C44.1739 60.4962 31.4847 51.2693 31.4847 32.5728C31.4847 11.7449 41.5479 0.170868 59.8128 0C77.8528 0 88.1948 11.9338 88.1948 32.7436V38.4632H74.3815V32.231C74.3815 19.6048 69.6781 13.4626 60.0106 13.4626C50.3431 13.4626 45.6397 19.5419 45.6397 32.0602C45.6397 44.5785 54.8846 51.0625 64.678 58.194C75.7844 66.2787 88.3746 75.4426 88.3746 93.8783C88.3746 114.688 77.9158 126.622 59.6779 126.622Z" fill="white"/>
<path d="M375.199 15.2882V1.7627H337.329H323.803V15.2882V56.5483V70.0738V111.334V124.859H337.329H375.199V111.334H337.329V70.0738H368.067V56.5483H337.329V15.2882H375.199Z" fill="white"/>
<path d="M287.427 1.7627H273.182L254.296 58.8955L235.411 1.7627H221.166L247.174 80.4428L247.533 81.522V124.859H261.059V81.531L261.419 80.4428L287.427 1.7627Z" fill="white"/>
<path d="M189.339 124.859L156.02 58.0411L188.134 1.7627H172.558L148.754 43.4724L140.696 57.6095L140.22 58.4368V1.86162H126.694V82.1425V106.514V124.859H140.22V85.7307L147.953 72.1782L174.222 124.859H189.339Z" fill="white"/>
<path d="M21.1876 81.4229H2.56302V74.9749H0V81.4229V83.9859V90.4339H2.56302V83.9859H21.1876V81.4229Z" fill="white"/>
<path d="M21.1876 57.9871V55.4331H0V57.9871H9.31679V68.6349H0V71.1889H21.1876V68.6349H11.8708V57.9871H21.1876Z" fill="white"/>
<path d="M18.6246 36.188V46.6289H11.8708V36.188H9.31679V46.6289H2.56302V36.188H0V46.6289V49.1829H2.56302H9.31679H11.8708H18.6246H21.1876V46.6289V36.188H18.6246Z" fill="white"/>
</svg>
